<?xml version="1.0" standalone="no"?>
<!DOCTYPE svg PUBLIC "-//W3C//DTD SVG 20010904//EN"
 "http://www.w3.org/TR/2001/REC-SVG-20010904/DTD/svg10.dtd">
<svg version="1.0" xmlns="http://www.w3.org/2000/svg"
 width="512.000000pt" height="512.000000pt" viewBox="0 0 512.000000 512.000000"
 preserveAspectRatio="xMidYMid meet">
<metadata>
Created by potrace 1.14, written by Peter Selinger 2001-2017
</metadata>
<g transform="translate(0.000000,512.000000) scale(0.100000,-0.100000)"
fill="#000000" stroke="none">
<path d="M320 3495 c0 -294 -2 -535 -5 -535 -3 0 -18 12 -33 28 -50 50 -111
93 -189 133 -43 21 -81 39 -86 39 -4 0 -6 -100 -5 -222 l3 -222 30 -7 c139
-31 264 -174 299 -341 37 -178 -43 -371 -193 -467 -46 -30 -116 -57 -133 -53
-5 1 -8 -99 -8 -223 l0 -225 30 5 c39 7 133 53 192 93 46 31 128 117 128 133
0 5 3 9 8 9 4 0 7 -49 7 -110 0 -67 4 -110 10 -111 13 -1 441 -1 482 0 l32 1
0 1305 -1 1305 -284 0 -284 0 0 -535z"/>
<path d="M2598 4023 c-2 -5 -3 -245 -3 -535 1 -291 -1 -528 -3 -528 -2 0 -29
22 -59 50 -89 81 -193 136 -313 163 -55 13 -247 15 -306 3 -223 -43 -400 -170
-532 -381 -139 -224 -169 -609 -68 -880 33 -86 79 -174 121 -231 84 -113 235
-225 362 -269 94 -33 113 -36 236 -42 125 -6 208 7 318 48 112 43 190 100 265
194 l24 30 1 -75 c0 -41 0 -93 -1 -115 l-1 -40 255 1 c141 0 259 4 263 7 3 4
7 592 7 1307 l1 1300 -282 0 c-155 0 -283 -3 -285 -7z m-259 -1324 c72 -25
126 -63 173 -123 121 -153 140 -331 55 -504 -54 -109 -149 -190 -254 -217
-234 -61 -458 80 -503 316 -13 63 -16 161 -6 204 3 17 8 39 10 51 8 41 49 114
89 160 111 127 276 169 436 113z"/>
<path d="M4876 4022 c-3 -5 -5 -236 -5 -513 0 -277 0 -514 -1 -527 0 -20 -8
-15 -72 39 -72 60 -206 134 -263 144 -16 3 -52 10 -80 15 -48 8 -247 6 -263
-3 -4 -3 -24 -8 -45 -11 -98 -15 -252 -100 -345 -189 -138 -132 -240 -344
-267 -552 -7 -54 -8 -262 -1 -273 2 -4 7 -29 10 -57 4 -27 16 -81 27 -120 85
-288 275 -489 544 -575 81 -26 283 -36 375 -19 149 28 265 89 362 190 l67 69
-2 -110 -2 -110 28 -1 c35 -1 154 -1 167 0 7 1 10 443 10 1306 l0 1305 -119 0
c-66 0 -122 -4 -125 -8z m-307 -1307 c99 -17 209 -103 265 -205 128 -234 42
-522 -189 -636 -55 -26 -69 -29 -165 -29 -92 0 -112 3 -161 26 -118 56 -205
167 -235 300 -10 43 -11 163 -2 214 19 111 104 233 204 291 73 43 179 58 283
39z"/>
</g>
</svg>
